<svg width="375" height="375" viewBox="0 0 375 375" fill="none" xmlns="http://www.w3.org/2000/svg">
<path d="M88.3688 120.666C88.3688 120.666 261.609 12.6468 296.25 89.925C330.891 167.203 310.594 321.225 174.225 316.022C37.8563 310.819 22.1063 155.091 88.3688 120.666Z" fill="#DAF0FE"/>
<path d="M264.253 272.203L278.672 275.578C278.955 275.643 279.217 275.779 279.433 275.974C279.649 276.168 279.812 276.415 279.906 276.69C280 276.965 280.022 277.26 279.97 277.546C279.918 277.832 279.794 278.1 279.609 278.325L271.172 288.506C270.987 288.729 270.748 288.9 270.478 289.005C270.208 289.109 269.916 289.143 269.63 289.102C269.343 289.062 269.072 288.949 268.841 288.774C268.611 288.599 268.429 288.368 268.312 288.103L262.359 274.547C262.238 274.262 262.196 273.949 262.239 273.643C262.282 273.336 262.407 273.047 262.602 272.806C262.797 272.565 263.053 272.382 263.344 272.276C263.635 272.169 263.949 272.144 264.253 272.203Z" fill="#4798FF"/>
<path d="M144.356 99.7594C151.538 99.7594 157.359 93.9377 157.359 86.7563C157.359 79.5749 151.538 73.7532 144.356 73.7532C137.175 73.7532 131.353 79.5749 131.353 86.7563C131.353 93.9377 137.175 99.7594 144.356 99.7594Z" stroke="#4798FF" stroke-width="3" stroke-miterlimit="10"/>
<path d="M83.3906 250.688C85.0837 250.688 86.4562 249.315 86.4562 247.622C86.4562 245.929 85.0837 244.556 83.3906 244.556C81.6975 244.556 80.325 245.929 80.325 247.622C80.325 249.315 81.6975 250.688 83.3906 250.688Z" fill="#4798FF"/>
<path d="M74.8875 121.472C74.8875 121.472 112.519 126.994 134.784 125.831L157.05 124.688C157.05 124.688 169.022 107.306 189.656 118.256C210.291 129.206 241.959 151.069 311.034 135.281C311.034 135.281 320.053 154.659 308.841 157.669C297.628 160.678 179.634 132.891 179.634 132.891L153.103 138.366L73.5094 131.803L74.8875 121.472Z" fill="white"/>
<path d="M66.825 124.444C64.5141 123.688 62.0408 123.578 59.6719 124.125C56.1375 124.978 52.3125 127.162 55.7719 132.722C61.4625 141.844 23.9906 150.019 41.7656 162.984C59.5406 175.95 27.8812 175.069 50.4375 200.981C50.4375 200.981 79.3031 200.044 92.7281 208.884C106.153 217.725 200.128 271.106 200.128 271.106C200.128 271.106 217.406 278.034 216.019 256.041C216.019 256.041 230.081 265.059 237.291 256.041C244.5 247.022 235.894 239.578 235.894 239.578C235.894 239.578 247.247 255.412 259.2 244.012C271.153 232.612 258.413 225.937 258.413 225.937C258.413 225.937 269.212 237.525 279.637 229.031C290.062 220.537 283.697 217.959 283.697 217.959L279.375 212.7L285.619 214.744H305.222C305.222 214.744 318.9 212.006 314.175 201.872C309.45 191.737 307.734 183.497 320.625 180.937C333.516 178.378 353.081 157.416 330.084 158.709C310.284 159.816 335.625 150.431 323.034 143.841C320.795 142.708 318.344 142.052 315.838 141.915C313.332 141.778 310.825 142.162 308.475 143.044C298.238 146.794 273.459 153.403 240.497 146.456C227.371 143.808 214.882 138.645 203.719 131.25C178.622 114.581 163.134 121.312 150.075 130.856L149.138 131.559C149.138 131.559 109.575 137.812 66.825 124.444Z" fill="#FFE6E2"/>
<path d="M325.041 130.959L331.819 128.091" stroke="black" stroke-width="3" stroke-miterlimit="10" stroke-linecap="round"/>
<path d="M330.075 214.744H281.4L229.688 162.797L183.263 140.906L160.931 152.672C155.391 155.588 149.052 156.622 142.872 155.618C136.692 154.613 131.006 151.624 126.675 147.103L163.125 120.206C166.918 117.404 171.426 115.731 176.129 115.381C180.831 115.031 185.537 116.018 189.703 118.228L210.328 129.178C212.203 130.181 214.434 131.222 216.891 132.272C247.078 145.172 286.163 144.459 316.866 133.294" stroke="black" stroke-width="3" stroke-miterlimit="10" stroke-linecap="round"/>
<path d="M183.263 140.906L229.688 162.797L281.409 214.744C286.275 219.506 284.466 224.184 279.647 228.994C277.484 231.155 274.591 232.429 271.536 232.566C268.481 232.703 265.486 231.693 263.138 229.734L230.841 198.225L258.413 225.938C259.656 226.98 260.679 228.26 261.423 229.702C262.167 231.144 262.617 232.72 262.746 234.338C262.875 235.955 262.681 237.582 262.175 239.124C261.67 240.666 260.862 242.092 259.8 243.319L259.2 244.013C258.123 245.256 256.807 246.27 255.329 246.993C253.852 247.717 252.244 248.135 250.601 248.222C248.958 248.31 247.315 248.065 245.769 247.503C244.223 246.941 242.806 246.072 241.603 244.95L204.881 210.347L235.894 239.569C238.132 241.647 239.516 244.486 239.774 247.53C240.033 250.574 239.147 253.605 237.291 256.031V256.031C236.268 257.376 234.98 258.496 233.505 259.321C232.031 260.146 230.402 260.658 228.721 260.825C227.04 260.992 225.342 260.811 223.734 260.293C222.126 259.774 220.642 258.93 219.375 257.813L187.5 229.875L213.413 252.713C215.64 254.679 217.012 257.436 217.238 260.398C217.464 263.36 216.525 266.294 214.622 268.575V268.575C212.896 270.642 210.495 272.034 207.844 272.504C205.192 272.974 202.459 272.492 200.128 271.144L92.7282 208.884C87.1322 205.643 80.9095 203.633 74.475 202.988L64.0969 201.947" stroke="black" stroke-width="3" stroke-linecap="round" stroke-linejoin="round"/>
<path d="M157.05 124.687L148.791 125.137C124.772 126.441 80.8125 125.391 61.6031 111.366" stroke="black" stroke-width="3" stroke-miterlimit="10" stroke-linecap="round"/>
<path d="M124.095 210.237C126.917 205.071 125.017 198.595 119.851 195.772C114.685 192.95 108.209 194.85 105.386 200.016L96.3557 216.544C93.5331 221.71 95.433 228.187 100.599 231.009C105.765 233.832 112.242 231.932 115.064 226.766L124.095 210.237Z" fill="#FFE6E2" stroke="black" stroke-width="3" stroke-miterlimit="10" stroke-linecap="round"/>
<path d="M149.039 220.021C152.631 213.447 150.213 205.205 143.639 201.613C137.064 198.02 128.822 200.438 125.23 207.013L114.878 225.96C111.286 232.535 113.704 240.777 120.279 244.369C126.853 247.961 135.095 245.543 138.687 238.969L149.039 220.021Z" fill="#FFE6E2" stroke="black" stroke-width="3" stroke-miterlimit="10" stroke-linecap="round"/>
<path d="M175.744 227.711C179.336 221.137 176.918 212.895 170.343 209.302C163.769 205.71 155.527 208.128 151.935 214.703L138.234 239.779C134.642 246.354 137.06 254.596 143.635 258.188C150.209 261.78 158.451 259.363 162.043 252.788L175.744 227.711Z" fill="#FFE6E2" stroke="black" stroke-width="3" stroke-miterlimit="10" stroke-linecap="round"/>
<path d="M197.246 243.963C200.838 237.388 198.42 229.146 191.845 225.554C185.27 221.962 177.029 224.379 173.436 230.954L161.628 252.567C158.036 259.142 160.454 267.384 167.029 270.976C173.604 274.568 181.846 272.15 185.438 265.575L197.246 243.963Z" fill="#FFE6E2" stroke="black" stroke-width="3" stroke-miterlimit="10" stroke-linecap="round"/>
<path d="M55.7719 201.487L45.2438 200.484" stroke="black" stroke-width="3" stroke-miterlimit="10" stroke-linecap="round"/>
<path d="M153.609 155.334L201.187 149.363L183.253 140.906L153.609 155.334Z" fill="#010101" stroke="#010101" stroke-width="3" stroke-linejoin="round"/>
<path d="M148.894 137.991C148.894 137.991 149.681 146.231 139.8 149.437" stroke="black" stroke-width="3" stroke-miterlimit="10" stroke-linecap="round"/>
<path d="M106.941 206.775C106.941 206.775 109.594 213.909 116.841 212.072Z" fill="#FFE6E2"/>
<path d="M106.941 206.775C106.941 206.775 109.594 213.909 116.841 212.072" stroke="black" stroke-width="3" stroke-miterlimit="10" stroke-linecap="round"/>
<path d="M129.778 215.091C129.778 215.091 132.441 222.225 139.687 220.387Z" fill="#FFE6E2"/>
<path d="M129.778 215.091C129.778 215.091 132.441 222.225 139.687 220.387" stroke="black" stroke-width="3" stroke-miterlimit="10" stroke-linecap="round"/>
<path d="M156.984 222.984C156.984 222.984 159.638 230.119 166.884 228.281Z" fill="#FFE6E2"/>
<path d="M156.984 222.984C156.984 222.984 159.638 230.119 166.884 228.281" stroke="black" stroke-width="3" stroke-miterlimit="10" stroke-linecap="round"/>
<path d="M178.481 238.125C178.481 238.125 181.134 245.259 188.391 243.422Z" fill="#FFE6E2"/>
<path d="M178.481 238.125C178.481 238.125 181.134 245.259 188.391 243.422" stroke="black" stroke-width="3" stroke-miterlimit="10" stroke-linecap="round"/>
<path d="M241.566 36.2063C242.449 36.6125 243.31 37.0663 244.144 37.5657Z" fill="white"/>
<path d="M241.566 36.2063C242.449 36.6125 243.31 37.0663 244.144 37.5657" stroke="black" stroke-width="2" stroke-miterlimit="10" stroke-linecap="round"/>
<path d="M250.772 42.9843C255.371 48.0719 257.978 54.6496 258.113 61.5066C258.248 68.3637 255.901 75.0387 251.505 80.303C247.109 85.5673 240.96 89.0666 234.188 90.1569C227.417 91.2471 220.48 89.8549 214.654 86.2366C208.828 82.6182 204.504 77.0171 202.48 70.4643C200.456 63.9115 200.866 56.848 203.636 50.5738C206.406 44.2997 211.349 39.2372 217.555 36.3182C223.761 33.3992 230.813 32.8201 237.412 34.6874" fill="white"/>
<path d="M250.772 42.9843C255.371 48.0719 257.978 54.6496 258.113 61.5066C258.248 68.3637 255.901 75.0387 251.505 80.303C247.109 85.5673 240.96 89.0666 234.188 90.1569C227.417 91.2471 220.48 89.8549 214.654 86.2366C208.828 82.6182 204.504 77.0171 202.48 70.4643C200.456 63.9115 200.866 56.848 203.636 50.5738C206.406 44.2997 211.349 39.2372 217.555 36.3182C223.761 33.3992 230.813 32.8201 237.412 34.6874" stroke="black" stroke-width="3" stroke-miterlimit="10" stroke-linecap="round"/>
<path d="M307.659 109.284C308.211 110.083 308.721 110.909 309.188 111.759Z" fill="white"/>
<path d="M307.659 109.284C308.211 110.083 308.721 110.909 309.188 111.759" stroke="black" stroke-width="2" stroke-miterlimit="10" stroke-linecap="round"/>
<path d="M312.187 119.794C313.55 126.487 312.451 133.447 309.091 139.395C305.731 145.342 300.337 149.876 293.9 152.163C287.464 154.451 280.418 154.337 274.059 151.844C267.7 149.35 262.454 144.645 259.288 138.593C256.121 132.54 255.246 125.548 256.824 118.902C258.402 112.256 262.326 106.403 267.875 102.42C273.424 98.4363 280.224 96.5902 287.026 97.2211C293.827 97.8519 300.172 100.917 304.894 105.853" fill="white"/>
<path d="M312.187 119.794C313.55 126.487 312.451 133.447 309.091 139.395C305.731 145.342 300.337 149.876 293.9 152.163C287.464 154.451 280.418 154.337 274.059 151.844C267.7 149.35 262.454 144.645 259.288 138.593C256.121 132.54 255.246 125.548 256.824 118.902C258.402 112.256 262.326 106.403 267.875 102.42C273.424 98.4363 280.224 96.5902 287.026 97.2211C293.827 97.8519 300.172 100.917 304.894 105.853" stroke="black" stroke-width="3" stroke-miterlimit="10" stroke-linecap="round"/>
<path d="M224.653 121.537C225.15 122.034 225.591 122.55 226.078 123.094Z" fill="white"/>
<path d="M224.653 121.537C225.15 122.034 225.591 122.55 226.078 123.094" stroke="black" stroke-width="2" stroke-miterlimit="10" stroke-linecap="round"/>
<path d="M229.266 128.438C231.062 132.793 231.307 137.634 229.961 142.149C228.614 146.664 225.758 150.58 221.87 153.241C217.981 155.902 213.297 157.147 208.601 156.767C203.905 156.387 199.481 154.406 196.071 151.154C192.661 147.903 190.471 143.579 189.868 138.906C189.265 134.233 190.285 129.495 192.758 125.485C195.231 121.474 199.006 118.434 203.452 116.874C207.898 115.315 212.745 115.329 217.181 116.916C218.964 117.556 220.651 118.436 222.197 119.531" fill="white"/>
<path d="M229.266 128.438C231.062 132.793 231.307 137.634 229.961 142.149C228.614 146.664 225.758 150.58 221.87 153.241C217.981 155.902 213.297 157.147 208.601 156.767C203.905 156.387 199.481 154.406 196.071 151.154C192.661 147.903 190.471 143.579 189.868 138.906C189.265 134.233 190.285 129.495 192.758 125.485C195.231 121.474 199.006 118.434 203.452 116.874C207.898 115.315 212.745 115.329 217.181 116.916C218.964 117.556 220.651 118.436 222.197 119.531" stroke="black" stroke-width="3" stroke-miterlimit="10" stroke-linecap="round"/>
<path d="M171.778 311.184C171.778 311.184 227.447 313.237 258.666 283.828C258.666 283.828 221.334 303.459 171.778 311.184Z" fill="white"/>
<path d="M114.984 118.434L131.953 102.881L105.459 118.434H114.984Z" fill="white"/>
<path d="M112.697 266.044L118.903 278.606C119.105 279.005 119.399 279.35 119.761 279.613C120.123 279.875 120.542 280.048 120.984 280.116L134.85 282.131C135.346 282.224 135.808 282.448 136.187 282.78C136.567 283.112 136.85 283.54 137.007 284.02C137.164 284.499 137.19 285.012 137.081 285.504C136.972 285.997 136.732 286.451 136.388 286.819L126.347 296.606C126.03 296.92 125.793 297.305 125.654 297.729C125.516 298.153 125.48 298.603 125.55 299.044L127.922 312.862C127.99 313.366 127.922 313.878 127.722 314.345C127.523 314.812 127.201 315.217 126.791 315.516C126.381 315.815 125.897 315.997 125.391 316.043C124.885 316.089 124.377 315.998 123.919 315.778L111.506 309.216C111.109 309.012 110.669 308.905 110.222 308.905C109.775 308.905 109.335 309.012 108.938 309.216L96.5344 315.778C96.0762 316 95.5663 316.094 95.0592 316.049C94.552 316.004 94.0666 315.822 93.6547 315.522C93.2428 315.223 92.9199 314.818 92.7204 314.349C92.5209 313.881 92.4523 313.367 92.5219 312.862L94.8938 299.062C94.9637 298.622 94.9279 298.171 94.7893 297.748C94.6508 297.324 94.4134 296.939 94.0969 296.625L84.0563 286.875C83.7115 286.507 83.472 286.053 83.363 285.56C83.254 285.068 83.2794 284.555 83.4366 284.076C83.5938 283.597 83.877 283.168 84.2565 282.836C84.636 282.504 85.0979 282.28 85.5938 282.187L99.4594 280.172C99.9013 280.104 100.321 279.931 100.683 279.669C101.045 279.406 101.339 279.061 101.541 278.662L107.747 266.1C107.968 265.634 108.316 265.24 108.751 264.962C109.185 264.685 109.689 264.534 110.204 264.528C110.72 264.523 111.227 264.661 111.668 264.929C112.108 265.197 112.465 265.583 112.697 266.044V266.044Z" fill="#4798FF" stroke="black" stroke-width="3" stroke-miterlimit="10" stroke-linecap="round"/>
<path d="M111.741 275.025L115.012 281.475C115.53 282.489 116.287 283.36 117.219 284.014C118.15 284.667 119.227 285.083 120.356 285.225L127.678 286.163" stroke="white" stroke-width="3" stroke-miterlimit="10" stroke-linecap="round"/>
<path d="M246.562 84.9563L265.406 104.222" stroke="black" stroke-width="3" stroke-miterlimit="10" stroke-linecap="round"/>
<path d="M256.097 129.525L230.822 132.9" stroke="black" stroke-width="3" stroke-miterlimit="10" stroke-linecap="round"/>
<path d="M222.45 89.6062L215.869 116.447" stroke="black" stroke-width="3" stroke-miterlimit="10" stroke-linecap="round"/>
<path d="M229.65 60.1969C232.876 60.1969 235.491 57.5819 235.491 54.3562C235.491 51.1306 232.876 48.5156 229.65 48.5156C226.424 48.5156 223.809 51.1306 223.809 54.3562C223.809 57.5819 226.424 60.1969 229.65 60.1969Z" fill="#FFE6E2"/>
<path d="M241.387 75.6188C241.218 72.6254 239.91 69.8103 237.73 67.751C235.551 65.6918 232.667 64.5444 229.669 64.5444C226.671 64.5444 223.786 65.6918 221.607 67.751C219.428 69.8103 218.119 72.6254 217.95 75.6188H241.387Z" fill="#4798FF"/>
<path d="M284.269 123.656C287.494 123.656 290.109 121.041 290.109 117.816C290.109 114.59 287.494 111.975 284.269 111.975C281.043 111.975 278.428 114.59 278.428 117.816C278.428 121.041 281.043 123.656 284.269 123.656Z" fill="#FFE6E2"/>
<path d="M296.006 139.078C296.097 137.483 295.86 135.887 295.312 134.387C294.764 132.887 293.916 131.514 292.818 130.353C291.721 129.192 290.399 128.268 288.932 127.636C287.465 127.003 285.885 126.677 284.288 126.677C282.69 126.677 281.11 127.003 279.643 127.636C278.176 128.268 276.854 129.192 275.757 130.353C274.66 131.514 273.811 132.887 273.263 134.387C272.715 135.887 272.479 137.483 272.569 139.078H296.006Z" fill="#4798FF"/>
<path d="M210.263 135.019C212.37 135.019 214.078 133.31 214.078 131.203C214.078 129.096 212.37 127.387 210.263 127.387C208.155 127.387 206.447 129.096 206.447 131.203C206.447 133.31 208.155 135.019 210.263 135.019Z" fill="#FFE6E2"/>
<path d="M217.922 145.087C217.922 143.056 217.115 141.108 215.679 139.671C214.242 138.235 212.294 137.428 210.263 137.428C208.231 137.428 206.283 138.235 204.847 139.671C203.41 141.108 202.603 143.056 202.603 145.087H217.922Z" fill="#4798FF"/>
<path d="M219.15 187.659L225.666 193.35" stroke="black" stroke-width="3" stroke-miterlimit="10" stroke-linecap="round"/>
</svg>
