<svg width="375" height="375" viewBox="0 0 375 375" fill="none" xmlns="http://www.w3.org/2000/svg">
<path d="M180.431 312.188C245.775 303.375 280.903 239.859 285.938 202.95C299.897 100.659 234.497 18.1407 198.947 65.5407C163.397 112.941 116.559 109.125 84.1406 154.388C47.1094 206.081 87.1031 324.741 180.431 312.188Z" fill="#DAF0FE"/>
<path d="M255.103 288.394L262.087 284.953L243.234 219.694L223.434 183.169L224.869 196.762L255.103 288.394Z" fill="white"/>
<path d="M224.869 196.762L231.253 208.125C235.823 216.249 239.434 224.875 242.016 233.831C249.731 260.616 263.794 317.119 263.109 321.872C259.697 345.309 241.547 289.809 239.25 308.1C237.131 324.862 234.319 342.253 223.031 325.406C211.744 308.559 206.766 339.525 202.181 327.628C198.431 317.962 195.562 302.316 195.562 302.316C195.562 302.316 175.322 297.394 165.422 251.85L218.437 233.334L224.869 196.762Z" fill="#FFE6E2"/>
<path d="M262.097 289.022L243.75 221.447C242.759 217.792 241.303 214.279 239.419 210.994L212.147 163.509L156.834 170.184L163.162 210.497C160.219 294.872 195.553 301.359 195.553 301.359L202.116 339.094" stroke="black" stroke-width="3" stroke-miterlimit="10" stroke-linecap="round"/>
<path d="M208.229 85.7102L153.854 85.8241C145.57 85.8414 138.868 92.5712 138.886 100.855L139.149 226.48C139.166 234.764 145.896 241.466 154.18 241.449L208.555 241.335C216.839 241.317 223.541 234.588 223.524 226.303L223.261 100.679C223.243 92.3945 216.513 85.6928 208.229 85.7102Z" fill="white"/>
<path d="M197.231 202.912L223.5 213.169" stroke="#DAF0FE" stroke-width="3" stroke-miterlimit="10"/>
<path d="M200.728 86.6531L203.925 139.612L213.356 149.006L213.488 209.559" stroke="#DAF0FE" stroke-width="3" stroke-miterlimit="10"/>
<path d="M191.081 241.359C191.081 241.359 209.709 217.8 189.206 178.087C166.706 134.475 166.8 121.134 169.931 86.7562" stroke="#4798FF" stroke-width="5" stroke-miterlimit="10"/>
<path d="M223.266 101.644C223.266 101.644 218.044 121.331 197.569 123.544C178.819 125.606 172.256 139.688 172.256 139.688" stroke="#4798FF" stroke-width="3" stroke-miterlimit="10"/>
<path d="M161.353 86.7375L150.647 86.175C147.309 86.9145 144.323 88.7722 142.185 91.4406C140.047 94.1089 138.885 97.4277 138.891 100.847L139.153 226.472C139.173 229.804 140.301 233.034 142.36 235.653C144.42 238.273 147.292 240.132 150.525 240.938H152.813C152.813 240.938 148.125 229.688 163.997 212.194C176.353 198.591 180.806 177.131 156.834 146.709C136.706 121.256 161.353 86.7375 161.353 86.7375Z" fill="#DAF0FE"/>
<path d="M165.788 254.419L163.978 241.416L192.337 241.359L165.788 254.419Z" fill="#010101" stroke="#010101" stroke-width="3" stroke-miterlimit="10"/>
<path d="M149.353 204.6L169.941 224.634L169.978 240.937" stroke="#DAF0FE" stroke-width="3" stroke-miterlimit="10"/>
<path d="M264.938 300.272L266.831 308.7" stroke="black" stroke-width="2" stroke-miterlimit="10" stroke-linecap="round"/>
<path d="M139.125 213.347C139.125 213.347 160.688 198.347 156.881 188.034C155.48 183.809 154.929 179.348 155.259 174.909C155.413 171.521 154.693 168.151 153.167 165.122C151.642 162.092 149.363 159.507 146.55 157.612L138.994 152.466" stroke="#4798FF" stroke-width="3" stroke-miterlimit="10"/>
<path d="M205.969 161.175C205.969 172.369 185.766 194.259 185.766 194.259C185.766 194.259 165.441 172.5 165.422 161.25C165.524 155.948 167.7 150.897 171.482 147.18C175.263 143.463 180.351 141.375 185.654 141.364C190.957 141.353 196.053 143.419 199.851 147.121C203.648 150.822 205.844 155.864 205.969 161.166V161.175Z" fill="white" stroke="black" stroke-width="3" stroke-miterlimit="10"/>
<path d="M202.425 105.694H190.331C189.034 105.693 187.774 105.256 186.754 104.454C185.734 103.651 185.013 102.53 184.706 101.269L181.041 86.25" stroke="#DAF0FE" stroke-width="3" stroke-miterlimit="10"/>
<path d="M139.003 152.409L138.891 100.847C138.891 96.8686 140.471 93.0533 143.284 90.2402C146.097 87.4272 149.912 85.8468 153.891 85.8468L208.266 85.725C212.244 85.725 216.059 87.3053 218.872 90.1184C221.685 92.9314 223.266 96.7467 223.266 100.725L223.528 226.35C223.528 230.328 221.948 234.144 219.135 236.957C216.322 239.77 212.506 241.35 208.528 241.35L154.153 241.472C150.175 241.472 146.36 239.892 143.547 237.078C140.733 234.265 139.153 230.45 139.153 226.472L139.031 171.825" stroke="black" stroke-width="3" stroke-miterlimit="10" stroke-linecap="round"/>
<path d="M210.366 292.312C210.366 292.312 183.328 279.816 197.325 249.788L184.2 227.625C181.843 223.651 181.009 218.957 181.854 214.414C182.699 209.872 185.165 205.791 188.794 202.931V202.931L230.147 252.525" fill="#FFE6E2"/>
<path d="M210.366 292.312C210.366 292.312 183.328 279.816 197.325 249.788L184.2 227.625C181.843 223.651 181.009 218.957 181.854 214.414C182.699 209.872 185.165 205.791 188.794 202.931V202.931L230.147 252.525" stroke="black" stroke-width="3" stroke-miterlimit="10" stroke-linecap="round"/>
<path d="M191.428 152.634C190.229 152.635 189.054 152.973 188.038 153.61C187.022 154.246 186.205 155.156 185.681 156.234C185.056 154.916 183.998 153.851 182.684 153.215C181.37 152.58 179.879 152.412 178.457 152.741C177.035 153.069 175.767 153.873 174.865 155.02C173.962 156.167 173.478 157.588 173.494 159.047C173.494 166.547 185.681 174.581 185.681 174.581C185.681 174.581 197.822 166.491 197.803 158.991C197.791 157.305 197.115 155.693 195.921 154.503C194.728 153.313 193.113 152.642 191.428 152.634V152.634Z" fill="#4798FF" stroke="black" stroke-width="3" stroke-miterlimit="10" stroke-linecap="round"/>
<path d="M275.259 216.563L289.969 214.847C290.257 214.811 290.55 214.851 290.819 214.961C291.088 215.071 291.324 215.249 291.505 215.476C291.686 215.704 291.805 215.975 291.851 216.262C291.897 216.549 291.869 216.843 291.769 217.116L287.25 229.566C287.15 229.835 286.984 230.075 286.767 230.262C286.549 230.45 286.288 230.579 286.007 230.638C285.726 230.697 285.435 230.684 285.16 230.6C284.886 230.515 284.637 230.363 284.437 230.156L274.247 219.422C274.029 219.195 273.878 218.912 273.812 218.604C273.745 218.297 273.766 217.977 273.871 217.68C273.976 217.383 274.161 217.122 274.407 216.924C274.652 216.727 274.947 216.602 275.259 216.563V216.563Z" fill="#4798FF"/>
<path d="M187.5 214.012C187.5 214.012 188.438 221.569 197.231 220.575" stroke="black" stroke-width="3" stroke-miterlimit="10" stroke-linecap="round"/>
<path d="M171.525 93.3938H190.406" stroke="black" stroke-width="2" stroke-miterlimit="10" stroke-linecap="round"/>
<path d="M138.891 55.5657C140.213 56.1751 141.497 56.8594 142.753 57.5907Z" fill="white"/>
<path d="M138.891 55.5657C140.213 56.1751 141.497 56.8594 142.753 57.5907" stroke="black" stroke-width="2" stroke-miterlimit="10" stroke-linecap="round"/>
<path d="M152.663 65.7001C159.515 73.3015 163.391 83.1215 163.58 93.3535C163.768 103.586 160.255 113.542 153.687 121.39C147.119 129.238 137.939 134.451 127.833 136.069C117.728 137.687 107.379 135.602 98.6887 130.198C89.9985 124.793 83.5523 116.432 80.5359 106.652C77.5195 96.8733 78.1357 86.3337 82.2713 76.9727C86.4069 67.6118 93.7837 60.059 103.045 55.7037C112.305 51.3485 122.827 50.4839 132.675 53.2688" fill="white"/>
<path d="M152.663 65.7001C159.515 73.3015 163.391 83.1215 163.58 93.3535C163.768 103.586 160.255 113.542 153.687 121.39C147.119 129.238 137.939 134.451 127.833 136.069C117.728 137.687 107.379 135.602 98.6887 130.198C89.9985 124.793 83.5523 116.432 80.5359 106.652C77.5195 96.8733 78.1357 86.3337 82.2713 76.9727C86.4069 67.6118 93.7837 60.059 103.045 55.7037C112.305 51.3485 122.827 50.4839 132.675 53.2688" stroke="black" stroke-width="3" stroke-miterlimit="10" stroke-linecap="round"/>
<path d="M90.7125 254.841C90.7125 254.841 114.384 306.703 172.894 305.841C172.894 305.841 123.525 298.125 90.7125 254.841Z" fill="white"/>
<path d="M127.444 111.394H114.694C112.375 111.393 110.128 110.584 108.342 109.106C106.555 107.627 105.34 105.572 104.906 103.294L102.272 89.4375H139.856L137.222 103.294C136.791 105.572 135.579 107.628 133.793 109.107C132.008 110.586 129.762 111.395 127.444 111.394V111.394Z" fill="#4798FF" stroke="black" stroke-width="3" stroke-miterlimit="10" stroke-linecap="round"/>
<path d="M121.069 136.875C121.093 138.133 121.216 139.386 121.434 140.625" stroke="black" stroke-width="3" stroke-miterlimit="10" stroke-linecap="round"/>
<path d="M124.031 148.95C127.35 155.878 134.344 163.303 149.166 163.847" stroke="black" stroke-width="3" stroke-miterlimit="10" stroke-linecap="round" stroke-dasharray="9.4 9.4"/>
<path d="M153.591 163.809C154.791 163.753 156.037 163.65 157.341 163.509" stroke="black" stroke-width="3" stroke-miterlimit="10" stroke-linecap="round"/>
<path d="M70.4344 217.603C77.6158 217.603 83.4375 211.781 83.4375 204.6C83.4375 197.419 77.6158 191.597 70.4344 191.597C63.253 191.597 57.4313 197.419 57.4313 204.6C57.4313 211.781 63.253 217.603 70.4344 217.603Z" stroke="#4798FF" stroke-width="3" stroke-miterlimit="10"/>
<path d="M269.194 172.359C282.324 172.359 292.969 161.715 292.969 148.584C292.969 135.454 282.324 124.809 269.194 124.809C256.063 124.809 245.419 135.454 245.419 148.584C245.419 161.715 256.063 172.359 269.194 172.359Z" fill="#4798FF" stroke="black" stroke-width="3" stroke-miterlimit="10" stroke-linecap="round"/>
<path d="M136.509 270.637C138.202 270.637 139.575 269.265 139.575 267.572C139.575 265.879 138.202 264.506 136.509 264.506C134.816 264.506 133.444 265.879 133.444 267.572C133.444 269.265 134.816 270.637 136.509 270.637Z" fill="#4798FF"/>
<path d="M195.562 301.35L203.259 303.141" stroke="black" stroke-width="3" stroke-miterlimit="10" stroke-linecap="round"/>
<path d="M252.638 82.3312C250.156 76.6514 246.447 71.5921 241.777 67.5168C237.107 63.4416 231.592 60.4518 225.628 58.7625C225.628 58.7625 247.097 74.3156 252.638 82.3312Z" fill="white"/>
<path d="M108.366 88.4156L115.003 77.1" stroke="black" stroke-width="4" stroke-miterlimit="10" stroke-linecap="round"/>
<path d="M133.772 88.4156L127.134 77.1" stroke="black" stroke-width="4" stroke-miterlimit="10" stroke-linecap="round"/>
<path d="M121.069 95.025V105.272" stroke="white" stroke-width="3" stroke-miterlimit="10" stroke-linecap="round"/>
<path d="M113.625 95.025V105.272" stroke="white" stroke-width="3" stroke-miterlimit="10" stroke-linecap="round"/>
<path d="M128.044 95.025V105.272" stroke="white" stroke-width="3" stroke-miterlimit="10" stroke-linecap="round"/>
<path d="M259.537 149.466L268.275 157.078L281.756 140.091" stroke="white" stroke-width="3" stroke-miterlimit="10"/>
</svg>
