<svg width="374" height="375" viewBox="0 0 374 375" fill="none" xmlns="http://www.w3.org/2000/svg">
<path d="M195.309 56.8219L197.316 42.1875C197.357 41.9014 197.47 41.6304 197.644 41.3999C197.819 41.1694 198.049 40.987 198.313 40.8699C198.577 40.7527 198.867 40.7047 199.155 40.7302C199.443 40.7557 199.72 40.8539 199.959 41.0157L210.9 48.5157C211.14 48.6786 211.334 48.9002 211.463 49.1593C211.593 49.4185 211.654 49.7066 211.641 49.9961C211.628 50.2856 211.541 50.5669 211.388 50.8133C211.236 51.0596 211.022 51.2627 210.769 51.4032L197.813 58.5375C197.537 58.6865 197.225 58.7565 196.912 58.7399C196.599 58.7233 196.296 58.6207 196.038 58.4434C195.779 58.2661 195.574 58.021 195.446 57.735C195.317 57.4489 195.27 57.133 195.309 56.8219V56.8219Z" fill="#4798FF"/>
<path d="M140.953 286.181C140.953 286.181 36.375 177.712 87.8719 100.078C139.369 22.4437 329.4 121.228 309.038 194.166C289.556 263.887 223.256 349.237 140.953 286.181Z" fill="#DAF0FE"/>
<path d="M258.216 68.6531H138.122C136.15 68.7223 134.283 69.5541 132.912 70.9733C131.542 72.3925 130.776 74.2882 130.776 76.2609C130.776 78.2336 131.542 80.1293 132.912 81.5485C134.283 82.9676 136.15 83.7995 138.122 83.8687H140.484L160.172 180.797C161.049 185.119 163.396 189.005 166.815 191.792C170.233 194.58 174.511 196.098 178.922 196.087H217.462C221.873 196.096 226.15 194.577 229.568 191.79C232.986 189.003 235.333 185.119 236.212 180.797L255.9 83.8687H258.253C260.225 83.7995 262.092 82.9676 263.462 81.5485C264.833 80.1293 265.598 78.2336 265.598 76.2609C265.598 74.2882 264.833 72.3925 263.462 70.9733C262.092 69.5541 260.225 68.7223 258.253 68.6531H258.216Z" fill="white" stroke="black" stroke-width="3" stroke-miterlimit="10" stroke-linecap="round"/>
<path d="M129.581 100.894H119.85C118.425 100.894 117.018 101.215 115.734 101.835C114.451 102.454 113.324 103.355 112.437 104.471C111.55 105.587 110.927 106.888 110.613 108.278C110.299 109.669 110.303 111.112 110.625 112.5L119.166 149.063C119.785 151.711 121.088 154.151 122.945 156.139C124.803 158.126 127.149 159.591 129.75 160.388L156.788 168.666" stroke="black" stroke-width="4" stroke-miterlimit="10" stroke-linecap="round"/>
<path d="M208.687 195.938C208.687 195.938 218.803 202.5 217.472 207.984C216.141 213.469 213.037 218.297 207.516 219.703L210.947 220.969C210.947 220.969 215.747 243.984 224.006 248.981H210.937L200.916 216.384C200.916 216.384 202.097 197.644 208.687 195.938Z" fill="white"/>
<path d="M266.475 100.894H276.216C277.64 100.895 279.046 101.218 280.328 101.838C281.611 102.458 282.737 103.359 283.622 104.475C284.508 105.59 285.131 106.891 285.444 108.281C285.757 109.67 285.753 111.112 285.431 112.5L276.9 149.063C276.277 151.71 274.973 154.148 273.116 156.135C271.259 158.121 268.915 159.588 266.316 160.388L239.278 168.666" stroke="black" stroke-width="4" stroke-miterlimit="10" stroke-linecap="round"/>
<path d="M214.209 248.962C207.795 240.673 204.721 230.28 205.594 219.834C205.594 219.834 216.131 204.647 205.594 196.088L189.047 195.938C189.047 195.938 178.013 197.653 178.903 207.984C179.794 218.316 185.466 219.853 185.466 219.853C185.466 219.853 180.909 244.809 169.941 248.981L214.209 248.962Z" fill="#FFE6E2"/>
<path d="M140.484 83.8688H212.494" stroke="black" stroke-width="3" stroke-miterlimit="10" stroke-linecap="round"/>
<path d="M255.862 83.8688H240.244" stroke="black" stroke-width="3" stroke-miterlimit="10" stroke-linecap="round"/>
<path d="M157.191 248.963H231.984C235.217 248.963 238.317 250.247 240.602 252.532C242.888 254.818 244.172 257.918 244.172 261.15V293.794H145.031V261.122C145.039 257.899 146.322 254.811 148.601 252.532C150.88 250.253 153.968 248.97 157.191 248.963Z" fill="white"/>
<path d="M232.969 83.8688H225.872" stroke="black" stroke-width="3" stroke-miterlimit="10" stroke-linecap="round"/>
<path d="M205.603 196.088H190.772C184.217 196.088 178.903 201.401 178.903 207.956V207.966C178.903 214.521 184.217 219.834 190.772 219.834H205.603C212.158 219.834 217.472 214.521 217.472 207.966V207.956C217.472 201.401 212.158 196.088 205.603 196.088Z" stroke="black" stroke-width="3" stroke-miterlimit="10" stroke-linecap="round"/>
<path d="M185.428 218.559C185.428 218.559 182.456 240 172.378 248.962" stroke="black" stroke-width="3" stroke-miterlimit="10" stroke-linecap="round"/>
<path d="M210.938 218.559C210.938 218.559 210.741 231.412 217.5 238.884" stroke="black" stroke-width="3" stroke-miterlimit="10" stroke-linecap="round"/>
<path d="M157.191 248.963H238.913C242.145 248.963 245.245 250.247 247.53 252.532C249.816 254.818 251.1 257.918 251.1 261.15V293.794H145.031V261.122C145.039 257.899 146.322 254.811 148.601 252.532C150.88 250.253 153.968 248.97 157.191 248.963Z" stroke="black" stroke-width="3" stroke-miterlimit="10" stroke-linecap="round"/>
<path d="M258.122 293.775H137.991C132.523 293.775 128.091 298.205 128.091 303.67C128.091 309.135 132.523 313.566 137.991 313.566H258.122C263.589 313.566 268.022 309.135 268.022 303.67C268.022 298.205 263.589 293.775 258.122 293.775Z" fill="white" stroke="black" stroke-width="3" stroke-miterlimit="10" stroke-linecap="round"/>
<path d="M199.809 120.937L203.878 129.178C204.007 129.441 204.198 129.668 204.435 129.839C204.672 130.011 204.948 130.122 205.238 130.162L214.331 131.484C214.667 131.532 214.983 131.673 215.242 131.891C215.502 132.109 215.695 132.395 215.799 132.718C215.904 133.04 215.916 133.386 215.834 133.715C215.751 134.043 215.578 134.343 215.334 134.578L208.772 140.991C208.559 141.194 208.4 141.447 208.309 141.726C208.217 142.006 208.196 142.304 208.247 142.594L209.803 151.65C209.851 151.981 209.806 152.318 209.675 152.625C209.543 152.932 209.33 153.197 209.058 153.391C208.785 153.584 208.465 153.699 208.132 153.723C207.799 153.747 207.466 153.678 207.169 153.525L199.041 149.241C198.779 149.109 198.49 149.04 198.197 149.04C197.904 149.04 197.615 149.109 197.353 149.241L189.216 153.525C188.92 153.679 188.586 153.749 188.253 153.725C187.92 153.702 187.6 153.587 187.328 153.393C187.056 153.198 186.844 152.933 186.713 152.625C186.583 152.318 186.541 151.98 186.591 151.65L188.147 142.594C188.198 142.304 188.177 142.006 188.085 141.726C187.993 141.447 187.834 141.194 187.622 140.991L181.059 134.578C180.819 134.341 180.649 134.041 180.57 133.712C180.49 133.384 180.503 133.039 180.609 132.718C180.714 132.397 180.906 132.111 181.165 131.893C181.423 131.675 181.737 131.534 182.072 131.484L191.156 130.162C191.447 130.122 191.724 130.011 191.962 129.839C192.201 129.668 192.394 129.441 192.525 129.178L196.594 120.937C196.746 120.642 196.977 120.395 197.26 120.222C197.544 120.049 197.87 119.958 198.202 119.958C198.534 119.958 198.859 120.049 199.143 120.222C199.427 120.395 199.657 120.642 199.809 120.937V120.937Z" fill="#4798FF" stroke="black" stroke-width="3" stroke-miterlimit="10" stroke-linecap="round"/>
<path d="M198.244 128.728L200.391 132.956C200.728 133.622 201.223 134.194 201.832 134.624C202.442 135.054 203.147 135.328 203.887 135.422L208.687 136.031" stroke="white" stroke-width="3" stroke-miterlimit="10" stroke-linecap="round"/>
<path d="M228.488 269.512H162.975V280.744H228.488V269.512Z" fill="#FFE6E2"/>
<path d="M228.488 263.531H162.975V280.744H228.488V263.531Z" stroke="black" stroke-width="3" stroke-miterlimit="10" stroke-linecap="round"/>
<path d="M84.675 110.063C91.8564 110.063 97.6781 104.241 97.6781 97.0594C97.6781 89.878 91.8564 84.0563 84.675 84.0563C77.4936 84.0563 71.6719 89.878 71.6719 97.0594C71.6719 104.241 77.4936 110.063 84.675 110.063Z" stroke="#4798FF" stroke-width="3" stroke-miterlimit="10"/>
<path d="M323.809 194.013L263.694 181.301C261.162 180.765 258.674 182.384 258.139 184.917L251.129 218.065C250.593 220.598 252.212 223.086 254.745 223.621L314.86 236.333C317.393 236.869 319.88 235.25 320.416 232.717L327.425 199.569C327.961 197.036 326.342 194.548 323.809 194.013Z" fill="#4798FF" stroke="black" stroke-width="3" stroke-miterlimit="10" stroke-linecap="round"/>
<path d="M289.266 218.541C294.635 218.541 298.987 214.188 298.987 208.819C298.987 203.45 294.635 199.097 289.266 199.097C283.896 199.097 279.544 203.45 279.544 208.819C279.544 214.188 283.896 218.541 289.266 218.541Z" fill="#4798FF" stroke="white" stroke-width="3" stroke-miterlimit="10" stroke-linecap="round"/>
<path d="M271.331 205.022L264.028 203.475" stroke="white" stroke-width="3" stroke-miterlimit="10" stroke-linecap="round"/>
<path d="M314.494 214.153L307.191 212.606" stroke="white" stroke-width="3" stroke-miterlimit="10" stroke-linecap="round"/>
<path d="M125.966 188.509L78.1039 202.568C75.62 203.298 74.1979 205.903 74.9276 208.387L88.9869 256.249C89.7166 258.733 92.3217 260.155 94.8055 259.425L142.668 245.366C145.152 244.636 146.574 242.031 145.844 239.547L131.785 191.685C131.055 189.201 128.45 187.779 125.966 188.509Z" fill="white" stroke="black" stroke-width="3" stroke-miterlimit="10" stroke-linecap="round"/>
<path d="M117.103 246.872L102.028 195.544" stroke="#4798FF" stroke-width="3" stroke-miterlimit="10"/>
<path d="M101.7 194.438C101.7 194.438 75.6282 194.438 81.675 183.038C87.9844 171.141 101.7 194.438 101.7 194.438Z" stroke="#4798FF" stroke-width="3" stroke-linejoin="round"/>
<path d="M101.7 194.437C101.7 194.437 125.709 181.716 112.387 174.019C100.725 167.278 101.7 194.437 101.7 194.437Z" stroke="#4798FF" stroke-width="3" stroke-linejoin="round"/>
<path d="M85.3687 232.191L133.772 217.978" stroke="#4798FF" stroke-width="3" stroke-miterlimit="10"/>
<path d="M165.272 55.6031L156.788 43.8375" stroke="#FFE6E2" stroke-width="3" stroke-miterlimit="10" stroke-linecap="round"/>
<path d="M289.266 171.731C290.959 171.731 292.331 170.359 292.331 168.666C292.331 166.973 290.959 165.6 289.266 165.6C287.572 165.6 286.2 166.973 286.2 168.666C286.2 170.359 287.572 171.731 289.266 171.731Z" fill="#4798FF"/>
<path d="M84.675 120C84.675 120 75.9094 148.922 83.5969 168.75C83.5969 168.666 84.675 129.844 84.675 120Z" fill="white"/>
<path d="M257.475 272.138C257.475 272.138 271.444 261.6 281.672 240.797L257.475 272.138Z" fill="white"/>
<path d="M235.959 58.7625L240.244 49.7156" stroke="#FFE6E2" stroke-width="3" stroke-miterlimit="10" stroke-linecap="round"/>
</svg>
