<svg width="33" height="32" viewBox="0 0 33 32" fill="none" xmlns="http://www.w3.org/2000/svg">
<path d="M7.26603 6.75147C7.49226 6.52643 7.7991 6.4 8.11905 6.4H21.3889C22.0551 6.4 22.5952 5.86274 22.5952 5.2C22.5952 4.53726 22.0551 4 21.3889 4H8.11905C7.15922 4 6.2387 4.37928 5.55999 5.05442C4.88129 5.72955 4.5 6.64522 4.5 7.6V24.4C4.5 25.3548 4.88129 26.2705 5.55999 26.9456C6.2387 27.6207 7.15922 28 8.11905 28H25.0079C25.9678 28 26.8883 27.6207 27.567 26.9456C28.2457 26.2705 28.627 25.3548 28.627 24.4V16C28.627 15.3373 28.0869 14.8 27.4206 14.8C26.7544 14.8 26.2143 15.3373 26.2143 16V24.4C26.2143 24.7183 26.0872 25.0235 25.861 25.2485C25.6347 25.4736 25.3279 25.6 25.0079 25.6H8.11905C7.7991 25.6 7.49226 25.4736 7.26603 25.2485C7.0398 25.0235 6.9127 24.7183 6.9127 24.4V7.6C6.9127 7.28174 7.0398 6.97652 7.26603 6.75147Z" fill="white"/>
<path d="M17.4165 19.2485L29.48 7.24853C29.9511 6.7799 29.9511 6.0201 29.48 5.55147C29.0089 5.08284 28.2451 5.08284 27.774 5.55147L16.5635 16.7029L13.7975 13.9515C13.3264 13.4828 12.5625 13.4828 12.0914 13.9515C11.6203 14.4201 11.6203 15.1799 12.0914 15.6485L15.7105 19.2485C16.1816 19.7172 16.9454 19.7172 17.4165 19.2485Z" fill="white"/>
</svg>
