<svg width="20" height="20" viewBox="0 0 20 20" fill="none" xmlns="http://www.w3.org/2000/svg">
<path fill-rule="evenodd" clip-rule="evenodd" d="M9.99984 3.1819C6.23426 3.1819 3.18166 6.2345 3.18166 10.0001C3.18166 13.7657 6.23426 16.8183 9.99984 16.8183C13.7654 16.8183 16.818 13.7657 16.818 10.0001C16.818 6.2345 13.7654 3.1819 9.99984 3.1819ZM1.6665 10.0001C1.6665 5.39771 5.39746 1.66675 9.99984 1.66675C14.6022 1.66675 18.3332 5.39771 18.3332 10.0001C18.3332 14.6025 14.6022 18.3334 9.99984 18.3334C5.39746 18.3334 1.6665 14.6025 1.6665 10.0001Z" fill="#A6AEBF"/>
<path fill-rule="evenodd" clip-rule="evenodd" d="M9.99984 4.69705C10.4182 4.69705 10.7574 5.03623 10.7574 5.45463V9.53187L13.3689 10.8376C13.7432 11.0247 13.8949 11.4798 13.7077 11.854C13.5206 12.2283 13.0656 12.3799 12.6913 12.1928L9.66104 10.6777C9.40439 10.5494 9.24226 10.287 9.24226 10.0001V5.45463C9.24226 5.03623 9.58144 4.69705 9.99984 4.69705Z" fill="#A6AEBF"/>
</svg>
