<svg width="20" height="20" viewBox="0 0 20 20" fill="none" xmlns="http://www.w3.org/2000/svg">
<path fill-rule="evenodd" clip-rule="evenodd" d="M14.8692 4.01742C14.7042 4.01742 14.5408 4.04992 14.3884 4.11306C14.2359 4.1762 14.0974 4.26875 13.9807 4.38543L4.8329 13.5333L4.16657 15.9765L6.6098 15.3102L15.7576 6.16232C15.8743 6.04565 15.9669 5.90713 16.03 5.7547C16.0931 5.60226 16.1256 5.43887 16.1256 5.27387C16.1256 5.10887 16.0931 4.94549 16.03 4.79305C15.9669 4.64061 15.8743 4.5021 15.7576 4.38543C15.641 4.26875 15.5025 4.1762 15.35 4.11306C15.1976 4.04992 15.0342 4.01742 14.8692 4.01742ZM13.8624 2.84332C14.1816 2.71111 14.5237 2.64307 14.8692 2.64307C15.2147 2.64307 15.5568 2.71111 15.876 2.84332C16.1951 2.97553 16.4852 3.16932 16.7295 3.41361C16.9737 3.6579 17.1675 3.94792 17.2997 4.26711C17.432 4.58629 17.5 4.92839 17.5 5.27387C17.5 5.61935 17.432 5.96145 17.2997 6.28064C17.1675 6.59982 16.9737 6.88984 16.7295 7.13413L7.45257 16.411C7.36801 16.4956 7.26285 16.5566 7.14747 16.5881L3.368 17.6188C3.13009 17.6837 2.87566 17.6162 2.70129 17.4418C2.52691 17.2674 2.45935 17.013 2.52423 16.7751L3.55499 12.9956C3.58646 12.8802 3.64749 12.7751 3.73205 12.6905L13.0089 3.41361C13.2532 3.16932 13.5432 2.97553 13.8624 2.84332Z" fill="white"/>
</svg>
