<svg width="24" height="24" viewBox="0 0 24 24" fill="none" xmlns="http://www.w3.org/2000/svg">
<path d="M11 8C11 8.55228 10.5523 9 10 9C9.44772 9 9 8.55228 9 8L9 6L3 6C2.44772 6 2 5.55228 2 5C2 4.44772 2.44772 4 3 4L9 4L9 2C9 1.44772 9.44772 1 10 1C10.5523 1 11 1.44772 11 2L11 8ZM12 12C12 12.5523 11.5523 13 11 13L3 13C2.44772 13 2 12.5523 2 12C2 11.4477 2.44772 11 3 11L11 11C11.5523 11 12 11.4477 12 12ZM9 22C9 22.5523 8.55228 23 8 23C7.44771 23 7 22.5523 7 22L7 20L3 20C2.44771 20 2 19.5523 2 19C2 18.4477 2.44772 18 3 18L7 18L7 16C7 15.4477 7.44772 15 8 15C8.55228 15 9 15.4477 9 16L9 22ZM21 19C21 19.5523 20.5523 20 20 20L11 20C10.4477 20 10 19.5523 10 19C10 18.4477 10.4477 18 11 18L20 18C20.5523 18 21 18.4477 21 19ZM21 5C21 5.55228 20.5523 5.99999 20 6L13 6C12.4477 6 12 5.55228 12 5C12 4.44772 12.4477 4 13 4L20 4C20.5523 4.00001 21 4.44772 21 5ZM21 12C21 12.5523 20.5523 13 20 13L16 13L16 15C16 15.5523 15.5523 16 15 16C14.4477 16 14 15.5523 14 15L14 9C14 8.44772 14.4477 8 15 8C15.5523 8 16 8.44772 16 9L16 11L20 11C20.5523 11 21 11.4477 21 12Z" fill="#22272F"/>
</svg>
