<svg width="12" height="12" viewBox="0 0 12 12" fill="none" xmlns="http://www.w3.org/2000/svg">
<path fill-rule="evenodd" clip-rule="evenodd" d="M10.7426 6.00004C10.7426 6.27618 10.5188 6.50004 10.2426 6.50004H1.75736C1.48122 6.50004 1.25736 6.27618 1.25736 6.00004C1.25736 5.7239 1.48122 5.50004 1.75736 5.50004H10.2426C10.5188 5.50004 10.7426 5.7239 10.7426 6.00004Z" fill="#454D5F"/>
<path fill-rule="evenodd" clip-rule="evenodd" d="M6 1.2574C6.27614 1.2574 6.5 1.48126 6.5 1.7574L6.5 10.2427C6.5 10.5188 6.27614 10.7427 6 10.7427C5.72386 10.7427 5.5 10.5188 5.5 10.2427L5.5 1.7574C5.5 1.48126 5.72386 1.2574 6 1.2574Z" fill="#454D5F"/>
</svg>
