<svg width="20" height="20" viewBox="0 0 20 20" fill="none" xmlns="http://www.w3.org/2000/svg">
<g clip-path="url(#clip0_1_1114)">
<path fill-rule="evenodd" clip-rule="evenodd" d="M10.0002 19.1666C15.0628 19.1666 19.1668 15.0625 19.1668 9.99992C19.1668 4.93731 15.0628 0.833252 10.0002 0.833252C4.93755 0.833252 0.833496 4.93731 0.833496 9.99992C0.833496 15.0625 4.93755 19.1666 10.0002 19.1666ZM8.10492 2.74144C5.14084 3.51323 2.89017 6.05262 2.54594 9.16658H5.87524C6.06208 6.86393 6.83275 4.6536 8.10492 2.74144ZM11.8954 2.74144C13.1676 4.6536 13.9382 6.86393 14.1251 9.16658H17.4544C17.1102 6.05262 14.8595 3.51323 11.8954 2.74144ZM12.4522 9.16658C12.2428 6.90561 11.3916 4.75153 10.0002 2.95892C8.60876 4.75153 7.75748 6.90561 7.54815 9.16658H12.4522ZM7.54815 10.8333H12.4522C12.2428 13.0942 11.3916 15.2483 10.0002 17.0409C8.60876 15.2483 7.75748 13.0942 7.54815 10.8333ZM5.87524 10.8333H2.54594C2.89017 13.9472 5.14084 16.4866 8.10492 17.2584C6.83275 15.3462 6.06208 13.1359 5.87524 10.8333ZM11.8954 17.2584C13.1676 15.3462 13.9382 13.1359 14.1251 10.8333H17.4544C17.1102 13.9472 14.8595 16.4866 11.8954 17.2584Z" fill="#A6AEBF"/>
</g>
<defs>
<clipPath id="clip0_1_1114">
<rect width="20" height="20" fill="white"/>
</clipPath>
</defs>
</svg>
