<svg width="24" height="24" viewBox="0 0 24 24" fill="none" xmlns="http://www.w3.org/2000/svg">
<path fill-rule="evenodd" clip-rule="evenodd" d="M12.0001 8.44444C10.1591 8.44444 8.66672 10.0363 8.66672 12C8.66672 13.9637 10.1591 15.5556 12.0001 15.5556C13.841 15.5556 15.3334 13.9637 15.3334 12C15.3334 10.0363 13.841 8.44444 12.0001 8.44444ZM10.3334 12C10.3334 11.0182 11.0796 10.2222 12.0001 10.2222C12.9206 10.2222 13.6668 11.0182 13.6668 12C13.6668 12.9818 12.9206 13.7778 12.0001 13.7778C11.0796 13.7778 10.3334 12.9818 10.3334 12Z" fill="#454D5F"/>
<path fill-rule="evenodd" clip-rule="evenodd" d="M21.9119 11.6019C22.0292 11.8521 22.0295 12.1473 21.9122 12.3975L21.1668 12C21.9122 12.3975 21.9117 12.3986 21.9115 12.3989L21.9105 12.401L21.9077 12.4071L21.8982 12.4268C21.8902 12.4433 21.879 12.4664 21.8645 12.4956C21.8355 12.554 21.7935 12.6371 21.7385 12.7413C21.6287 12.9497 21.4669 13.2431 21.2549 13.5934C20.8318 14.2922 20.2028 15.2261 19.3789 16.1635C17.7464 18.0209 15.2497 20 12.0001 20C8.75046 20 6.25377 18.0209 4.62124 16.1635C3.79737 15.2261 3.1684 14.2922 2.74529 13.5934C2.53321 13.2431 2.3715 12.9497 2.26164 12.7413C2.20669 12.6371 2.16462 12.554 2.13563 12.4956C2.12113 12.4664 2.1099 12.4433 2.10195 12.4268L2.09249 12.4071L2.08962 12.401L2.08798 12.3975L2.83292 12.0002C2.0931 12.3948 2.08787 12.3972 2.08798 12.3975C1.97067 12.1473 1.97067 11.8527 2.08798 11.6025L2.83292 12.0002C2.08755 11.6027 2.08849 11.6014 2.08864 11.6011L2.08962 11.599L2.09249 11.5929L2.10195 11.5732C2.1099 11.5567 2.12113 11.5336 2.13563 11.5044C2.16462 11.446 2.20669 11.3629 2.26164 11.2587C2.3715 11.0503 2.53321 10.7569 2.74529 10.4066C3.1684 9.70783 3.79737 8.77386 4.62124 7.8365C6.25377 5.97906 8.75046 4 12.0001 4C15.2497 4 17.7464 5.97906 19.3789 7.8365C20.2028 8.77386 20.8318 9.70783 21.2549 10.4066C21.4669 10.7569 21.6287 11.0503 21.7385 11.2587C21.7935 11.3629 21.8355 11.446 21.8645 11.5044C21.879 11.5336 21.8902 11.5567 21.8982 11.5732L21.9077 11.5929L21.9105 11.599L21.9119 11.6019ZM4.14536 12.6289C3.99578 12.3818 3.87504 12.1679 3.78396 12C3.87504 11.8321 3.99578 11.6182 4.14536 11.3711C4.52955 10.7366 5.09849 9.8928 5.83714 9.05239C7.32964 7.35428 9.41631 5.77778 12.0001 5.77778C14.5838 5.77778 16.6705 7.35428 18.163 9.05239C18.9017 9.8928 19.4706 10.7366 19.8548 11.3711C20.0044 11.6182 20.1251 11.8321 20.2162 12C20.1251 12.1679 20.0044 12.3818 19.8548 12.6289C19.4706 13.2634 18.9017 14.1072 18.163 14.9476C16.6705 16.6457 14.5838 18.2222 12.0001 18.2222C9.41631 18.2222 7.32964 16.6457 5.83714 14.9476C5.09849 14.1072 4.52955 13.2634 4.14536 12.6289ZM21.1668 12C21.9122 11.6025 21.912 11.6022 21.9119 11.6019L21.1668 12Z" fill="#454D5F"/>
</svg>
