<svg width="24" height="24" viewBox="0 0 24 24" fill="none" xmlns="http://www.w3.org/2000/svg">
<path d="M20.3089 19.6957L20.0082 20L16.3525 16.7671L16.1293 16.5704L15.8397 16.6746C15.3184 16.8623 14.7216 17.0091 14.0478 17.1125C13.3735 17.216 12.6913 17.2681 12.0009 17.2681C9.76934 17.2681 7.75183 16.7089 5.93595 15.5894C4.16963 14.5003 2.86 13.0523 2 11.2368C2.29661 10.5834 2.69496 9.94073 3.19806 9.30925C3.74055 8.6283 4.40473 7.97385 5.19358 7.34728L5.5755 7.04466L2.53693 4.30934L2.87309 4L20.3089 19.6957ZM5.5755 7.58096C4.94352 7.99611 4.34261 8.53493 3.7714 9.19072C3.20154 9.84498 2.77902 10.4777 2.51825 11.0879L2.44635 11.2578L2.53039 11.4225C3.38155 13.09 4.66681 14.4132 6.37949 15.3834C8.09491 16.3551 10.0374 16.8377 12.1924 16.8377C12.7375 16.8377 13.2751 16.8082 13.805 16.7486C14.3328 16.6892 14.78 16.5952 15.1077 16.4477L15.7006 16.1812L15.2319 15.7583L13.7014 14.3815L13.467 14.1705L13.1654 14.294C13.0403 14.3451 12.8699 14.3901 12.6444 14.4218C12.4101 14.4547 12.1959 14.4705 12.0009 14.4705C11.0105 14.4705 10.1741 14.1633 9.46663 13.5392C8.76453 12.9197 8.41517 12.1636 8.41517 11.2426C8.41517 11.0514 8.43282 10.8598 8.46839 10.6676C8.5032 10.4797 8.55439 10.3188 8.6178 10.1818L8.74013 9.91532L5.90607 7.36409L5.5755 7.58096ZM12.1205 5.21719C14.302 5.21719 16.2913 5.77497 18.1005 6.89503C19.8573 7.98272 21.1549 9.42882 22 11.2418C21.6129 12.0616 21.1271 12.8135 20.5396 13.4971C19.9968 14.1286 19.3788 14.6918 18.6869 15.1893L18.4124 14.9422C19.0431 14.4852 19.6077 13.9858 20.1035 13.4417C20.7119 12.7739 21.1678 12.0918 21.4603 11.3948L21.5303 11.2283L21.4491 11.0661C20.6153 9.39989 19.3598 8.07575 17.6868 7.10434C16.0173 6.13497 14.1982 5.64758 12.24 5.64758C11.5402 5.64758 10.8263 5.70756 10.0988 5.82663C9.53735 5.91853 9.05344 6.02703 8.65516 6.15446L8.28257 5.8115C8.6824 5.68809 9.14622 5.5705 9.67766 5.46517C10.5148 5.29927 11.3288 5.21719 12.1205 5.21719ZM12.0009 8.01471C13.0076 8.01471 13.8459 8.32552 14.5437 8.95367C15.2414 9.58181 15.5867 10.3364 15.5867 11.2426C15.5867 11.522 15.5478 11.7984 15.47 12.0723C15.4531 12.1318 15.4335 12.1886 15.4139 12.2438L15.0545 11.9193C15.2052 11.4452 15.2383 10.9843 15.1264 10.5441C14.9929 10.0193 14.6669 9.56346 14.1832 9.17727C13.7114 8.80061 13.1974 8.54769 12.6425 8.44342C12.1832 8.35714 11.717 8.37805 11.2493 8.49386L10.8794 8.16098C10.9455 8.14177 11.0139 8.12554 11.0839 8.11055C11.3816 8.04676 11.687 8.01471 12.0009 8.01471Z" fill="#454D5F" stroke="#4C4C4C" stroke-width="1.25" stroke-linecap="round" stroke-linejoin="round"/>
</svg>
