<svg width="40" height="44" viewBox="0 0 40 44" fill="none" xmlns="http://www.w3.org/2000/svg">
<g filter="url(#filter0_dd_24_1129)">
<path d="M20 0C28.8366 0 36 7.16344 36 16C36 22.4214 32.2166 27.958 26.7578 30.5053C25.9724 30.8718 25.2267 31.3291 24.6139 31.942L21.6729 34.8838C20.8918 35.6647 19.6257 35.6648 18.8447 34.8838L16.2856 32.3253C15.5983 31.6383 14.7458 31.1482 13.8488 30.7744C8.06542 28.3638 4 22.6568 4 16C4 7.16344 11.1634 0 20 0Z" fill="#FF6B35"/>
</g>
<!-- Fork and Knife Icon -->
<path d="M16 8C16 7.44772 16.4477 7 17 7H23C23.5523 7 24 7.44772 24 8V10C24 10.5523 23.5523 11 23 11H17C16.4477 11 16 10.5523 16 10V8Z" fill="white"/>
<path d="M17 12C17 11.4477 17.4477 11 18 11H22C22.5523 11 23 11.4477 23 12V14C23 14.5523 22.5523 15 22 15H18C17.4477 15 17 14.5523 17 14V12Z" fill="white"/>
<defs>
<filter id="filter0_dd_24_1129" x="0" y="0" width="40" height="43.4695" filterUnits="userSpaceOnUse" color-interpolation-filters="sRGB">
<feFlood flood-opacity="0" result="BackgroundImageFix"/>
<feColorMatrix in="SourceAlpha" type="matrix" values="0 0 0 0 0 0 0 0 0 0 0 0 0 0 0 0 0 0 127 0" result="hardAlpha"/>
<feOffset dy="1"/>
<feGaussianBlur stdDeviation="0.5"/>
<feColorMatrix type="matrix" values="0 0 0 0 0.168627 0 0 0 0 0.223529 0 0 0 0 0.25098 0 0 0 0.24 0"/>
<feBlend mode="normal" in2="BackgroundImageFix" result="effect1_dropShadow_24_1129"/>
<feColorMatrix in="SourceAlpha" type="matrix" values="0 0 0 0 0 0 0 0 0 0 0 0 0 0 0 0 0 0 127 0" result="hardAlpha"/>
<feOffset dy="4"/>
<feGaussianBlur stdDeviation="2"/>
<feColorMatrix type="matrix" values="0 0 0 0 0 0 0 0 0 0 0 0 0 0 0 0 0 0 0.08 0"/>
<feBlend mode="normal" in2="effect1_dropShadow_24_1129" result="effect2_dropShadow_24_1129"/>
<feBlend mode="normal" in="SourceGraphic" in2="effect2_dropShadow_24_1129" result="shape"/>
</filter>
</defs>
</svg> 