<svg width="40" height="44" viewBox="0 0 40 44" fill="none" xmlns="http://www.w3.org/2000/svg">
<g filter="url(#filter0_dd_24_1129)">
<path d="M20 0C28.8366 0 36 7.16344 36 16C36 22.4214 32.2166 27.958 26.7578 30.5053C25.9724 30.8718 25.2267 31.3291 24.6139 31.942L21.6729 34.8838C20.8918 35.6647 19.6257 35.6648 18.8447 34.8838L16.2856 32.3253C15.5983 31.6383 14.7458 31.1482 13.8488 30.7744C8.06542 28.3638 4 22.6568 4 16C4 7.16344 11.1634 0 20 0Z" fill="#F44336"/>
</g>
<!-- Building/Service Icon -->
<path d="M12 8C12 6.89543 12.8954 6 14 6H26C27.1046 6 28 6.89543 28 8V18C28 19.1046 27.1046 20 26 20H14C12.8954 20 12 19.1046 12 18V8Z" fill="white"/>
<path d="M14 8H26V10H14V8Z" fill="#F44336"/>
<path d="M14 12H26V14H14V12Z" fill="#F44336"/>
<path d="M14 16H26V18H14V16Z" fill="#F44336"/>
<!-- X Mark for Closed -->
<path d="M28 6L34 12M34 6L28 12" stroke="white" stroke-width="2" stroke-linecap="round"/>
<defs>
<filter id="filter0_dd_24_1129" x="0" y="0" width="40" height="43.4695" filterUnits="userSpaceOnUse" color-interpolation-filters="sRGB">
<feFlood flood-opacity="0" result="BackgroundImageFix"/>
<feColorMatrix in="SourceAlpha" type="matrix" values="0 0 0 0 0 0 0 0 0 0 0 0 0 0 0 0 0 0 127 0" result="hardAlpha"/>
<feOffset dy="1"/>
<feGaussianBlur stdDeviation="0.5"/>
<feColorMatrix type="matrix" values="0 0 0 0 0.168627 0 0 0 0 0.223529 0 0 0 0 0.25098 0 0 0 0.24 0"/>
<feBlend mode="normal" in2="BackgroundImageFix" result="effect1_dropShadow_24_1129"/>
<feColorMatrix in="SourceAlpha" type="matrix" values="0 0 0 0 0 0 0 0 0 0 0 0 0 0 0 0 0 0 127 0" result="hardAlpha"/>
<feOffset dy="4"/>
<feGaussianBlur stdDeviation="2"/>
<feColorMatrix type="matrix" values="0 0 0 0 0 0 0 0 0 0 0 0 0 0 0 0 0 0 0.08 0"/>
<feBlend mode="normal" in2="effect1_dropShadow_24_1129" result="effect2_dropShadow_24_1129"/>
<feBlend mode="normal" in="SourceGraphic" in2="effect2_dropShadow_24_1129" result="shape"/>
</filter>
</defs>
</svg> 