<svg width="40" height="44" viewBox="0 0 40 44" fill="none" xmlns="http://www.w3.org/2000/svg">
<g filter="url(#filter0_dd_24_1129)">
<path d="M20 0C28.8366 0 36 7.16344 36 16C36 22.4214 32.2166 27.958 26.7578 30.5053C25.9724 30.8718 25.2267 31.3291 24.6139 31.942L21.6729 34.8838C20.8918 35.6647 19.6257 35.6648 18.8447 34.8838L16.2856 32.3253C15.5983 31.6383 14.7458 31.1482 13.8488 30.7744C8.06542 28.3638 4 22.6568 4 16C4 7.16344 11.1634 0 20 0Z" fill="#4CAF50"/>
</g>
<!-- Shopping Bag Icon -->
<path d="M14 8C14 6.89543 14.8954 6 16 6H24C25.1046 6 26 6.89543 26 8V10C26 11.1046 25.1046 12 24 12H16C14.8954 12 14 11.1046 14 10V8Z" fill="white"/>
<path d="M12 10C12 8.89543 12.8954 8 14 8H26C27.1046 8 28 8.89543 28 10V12C28 13.1046 27.1046 14 26 14H14C12.8954 14 12 13.1046 12 12V10Z" fill="white"/>
<path d="M16 10H24V12H16V10Z" fill="#4CAF50"/>
<defs>
<filter id="filter0_dd_24_1129" x="0" y="0" width="40" height="43.4695" filterUnits="userSpaceOnUse" color-interpolation-filters="sRGB">
<feFlood flood-opacity="0" result="BackgroundImageFix"/>
<feColorMatrix in="SourceAlpha" type="matrix" values="0 0 0 0 0 0 0 0 0 0 0 0 0 0 0 0 0 0 127 0" result="hardAlpha"/>
<feOffset dy="1"/>
<feGaussianBlur stdDeviation="0.5"/>
<feColorMatrix type="matrix" values="0 0 0 0 0.168627 0 0 0 0 0.223529 0 0 0 0 0.25098 0 0 0 0.24 0"/>
<feBlend mode="normal" in2="BackgroundImageFix" result="effect1_dropShadow_24_1129"/>
<feColorMatrix in="SourceAlpha" type="matrix" values="0 0 0 0 0 0 0 0 0 0 0 0 0 0 0 0 0 0 127 0" result="hardAlpha"/>
<feOffset dy="4"/>
<feGaussianBlur stdDeviation="2"/>
<feColorMatrix type="matrix" values="0 0 0 0 0 0 0 0 0 0 0 0 0 0 0 0 0 0 0.08 0"/>
<feBlend mode="normal" in2="effect1_dropShadow_24_1129" result="effect2_dropShadow_24_1129"/>
<feBlend mode="normal" in="SourceGraphic" in2="effect2_dropShadow_24_1129" result="shape"/>
</filter>
</defs>
</svg> 