<svg width="25" height="24" viewBox="0 0 25 24" fill="none" xmlns="http://www.w3.org/2000/svg">
<path d="M13.144 3C15.3906 3.00003 17.1531 3.66871 18.3013 4.7998C19.2467 5.77676 19.7827 7.11408 19.7827 8.68262V8.73438C19.7827 11.6924 18.0197 13.4679 15.5435 14.1865L20.3696 21H16.6421L12.1216 14.5029V11.6426C14.4675 11.1822 16.5903 11.1699 16.5903 8.91602V8.86426C16.5903 6.93531 15.2104 5.88086 12.8872 5.88086H8.31787V11.0674H5.17725V3H13.144ZM11.0425 14.6191C10.0102 14.8441 8.94469 15.378 8.31787 16.1904V20.998H5.17725V12.1113H8.31787V13.2881C9.13081 12.5633 10.0806 12.1572 11.0425 11.8906V14.6191Z" fill="#4798FF"/>
</svg>
