<svg width="24" height="24" viewBox="0 0 24 24" fill="none" xmlns="http://www.w3.org/2000/svg">
<path d="M12.8108 3C15.0574 3.00003 16.8199 3.66871 17.968 4.7998C18.9134 5.77676 19.4494 7.11408 19.4495 8.68262V8.73438C19.4495 11.6924 17.6865 13.4679 15.2102 14.1865L20.0364 21H16.3088L11.7883 14.5029V11.6426C14.1343 11.1822 16.2571 11.1699 16.2571 8.91602V8.86426C16.2571 6.93531 14.8771 5.88086 12.554 5.88086H7.98462V11.0674H4.84399V3H12.8108ZM10.7092 14.6191C9.67693 14.8441 8.61144 15.378 7.98462 16.1904V20.998H4.84399V12.1113H7.98462V13.2881C8.79756 12.5633 9.7474 12.1572 10.7092 11.8906V14.6191Z" fill="#6C7589"/>
</svg>
