<svg width="24" height="24" viewBox="0 0 24 24" fill="none" xmlns="http://www.w3.org/2000/svg">
<path fill-rule="evenodd" clip-rule="evenodd" d="M6.66667 8.66667C6.66667 5.90524 8.90524 3.66667 11.6667 3.66667C14.4281 3.66667 16.6667 5.90524 16.6667 8.66667C16.6667 10.4012 15.7834 11.9295 14.4421 12.8262C14.3946 12.8508 14.3499 12.8798 14.3085 12.9126C13.5419 13.3905 12.6365 13.6667 11.6667 13.6667C8.90524 13.6667 6.66667 11.4281 6.66667 8.66667ZM14.1551 14.8534C13.3862 15.163 12.5463 15.3333 11.6667 15.3333C10.7873 15.3333 9.94778 15.1631 9.17914 14.8538L8.5537 19.5626L11.2379 17.9521C11.5018 17.7937 11.8315 17.7937 12.0954 17.9521L14.7799 19.5628L14.1551 14.8534ZM7.61625 13.9622C6.0257 12.7438 5 10.825 5 8.66667C5 4.98477 7.98477 2 11.6667 2C15.3486 2 18.3333 4.98477 18.3333 8.66667C18.3333 10.8246 17.308 12.7431 15.718 13.9615L16.6594 21.0571C16.7015 21.3743 16.5583 21.6875 16.2908 21.8632C16.0234 22.0389 15.679 22.0459 15.4046 21.8812L11.6667 19.6385L7.92875 21.8812C7.65435 22.0459 7.30992 22.0389 7.04247 21.8632C6.77502 21.6875 6.63179 21.3742 6.67392 21.0569L7.61625 13.9622Z" fill="#6C7589"/>
</svg>
