<svg width="25" height="24" viewBox="0 0 25 24" fill="none" xmlns="http://www.w3.org/2000/svg">
<path fill-rule="evenodd" clip-rule="evenodd" d="M7.33341 8.66667C7.33341 5.90524 9.57199 3.66667 12.3334 3.66667C15.0948 3.66667 17.3334 5.90524 17.3334 8.66667C17.3334 10.4012 16.4502 11.9295 15.1089 12.8262C15.0613 12.8508 15.0166 12.8798 14.9752 12.9126C14.2087 13.3905 13.3033 13.6667 12.3334 13.6667C9.57199 13.6667 7.33341 11.4281 7.33341 8.66667ZM14.8218 14.8534C14.0529 15.163 13.2131 15.3333 12.3334 15.3333C11.4541 15.3333 10.6145 15.1631 9.84589 14.8538L9.22045 19.5626L11.9047 17.9521C12.1686 17.7937 12.4983 17.7937 12.7622 17.9521L15.4466 19.5628L14.8218 14.8534ZM8.283 13.9622C6.69244 12.7438 5.66675 10.825 5.66675 8.66667C5.66675 4.98477 8.65152 2 12.3334 2C16.0153 2 19.0001 4.98477 19.0001 8.66667C19.0001 10.8246 17.9748 12.7431 16.3848 13.9615L17.3262 21.0571C17.3683 21.3743 17.225 21.6875 16.9576 21.8632C16.6901 22.0389 16.3457 22.0459 16.0713 21.8812L12.3334 19.6385L8.59549 21.8812C8.3211 22.0459 7.97667 22.0389 7.70922 21.8632C7.44176 21.6875 7.29854 21.3742 7.34067 21.0569L8.283 13.9622Z" fill="#4798FF"/>
</svg>
