<svg width="256" height="256" viewBox="0 0 256 256" fill="none" xmlns="http://www.w3.org/2000/svg">
<path d="M199.47 119.963C204.301 80.4929 176.221 44.5794 136.751 39.748C97.2806 34.9166 61.367 62.9969 56.5356 102.467C51.7042 141.937 79.7846 177.851 119.255 182.682C158.725 187.514 194.639 159.433 199.47 119.963Z" fill="#4798FF"/>
<path fill-rule="evenodd" clip-rule="evenodd" d="M91.28 68.014L130.62 68.024C140.53 68.064 150.36 71.884 155.1 77.054L199.3 121.254C198.3 128.434 196.24 135.274 193.28 141.604C186.31 156.544 174.37 168.694 159.59 175.924C159.36 176.034 159.12 176.154 158.88 176.264C158.57 176.414 158.26 176.554 157.95 176.694C157.73 176.794 157.51 176.894 157.29 176.994C156.98 177.134 156.66 177.274 156.34 177.404C156.12 177.494 155.9 177.594 155.68 177.684C155.34 177.824 154.99 177.964 154.65 178.104L154.13 178.314C153.76 178.464 153.38 178.604 153.01 178.744L152.48 178.934C152.1 179.074 151.72 179.204 151.34 179.334L150.85 179.504C150.44 179.644 150.03 179.774 149.62 179.904L149.24 180.024C148.78 180.164 148.33 180.304 147.87 180.434L147.53 180.534C147.07 180.664 146.6 180.794 146.13 180.914L145.86 180.984C145.37 181.104 144.89 181.224 144.4 181.344L144.1 181.414C143.61 181.524 143.12 181.634 142.62 181.734L142.38 181.784C141.87 181.884 141.36 181.984 140.84 182.074L140.65 182.104C140.11 182.204 139.57 182.294 139.03 182.374L138.86 182.404C138.32 182.484 137.77 182.564 137.22 182.634L137.1 182.644C136.53 182.714 135.96 182.784 135.38 182.844L135.28 182.854C134.71 182.914 134.15 182.964 133.58 183.004L133.47 183.014C132.89 183.054 132.31 183.094 131.72 183.124H131.63C131.05 183.154 130.47 183.174 129.89 183.194H129.78C129.18 183.204 128.58 183.214 127.97 183.214C127.37 183.214 126.77 183.204 126.17 183.194H126.05C125.51 183.184 124.98 183.154 124.45 183.134L124.05 183.114C123.63 183.094 123.21 183.064 122.8 183.034C122.53 183.014 122.25 182.994 121.98 182.974C121.73 182.954 121.48 182.934 121.23 182.904C120.81 182.864 120.38 182.824 119.96 182.774L119.83 182.764L119.7 182.754L119.57 182.744L91.28 154.414C91.28 138.184 91.28 119.514 91.28 111.754H96.33L91.28 106.744V68.014Z" fill="url(#paint0_linear_3_5083)"/>
<path fill-rule="evenodd" clip-rule="evenodd" d="M106.46 106.744V81.844H128.55C139.78 81.844 146.45 86.904 146.45 96.164V96.414C146.45 107.234 136.19 107.294 124.85 109.504V123.234L146.7 154.424H164.72L141.39 121.714C153.36 118.264 161.88 109.744 161.88 95.544V95.294C161.88 87.764 159.29 81.344 154.72 76.654C149.17 71.224 140.65 68.014 129.79 68.014H91.28V106.744H106.46Z" fill="#C5D8FF"/>
<path fill-rule="evenodd" clip-rule="evenodd" d="M91.28 154.414H106.46V131.334C109.49 127.434 114.64 124.874 119.63 123.794V110.694C114.98 111.974 110.39 113.924 106.46 117.404V111.754H91.28V154.414Z" fill="white"/>
<path fill-rule="evenodd" clip-rule="evenodd" d="M8 225.344H10.02V218.394H15.13L20.32 225.344H22.8L17.31 218.034C20.12 217.524 22.16 215.784 22.16 212.824V212.774C22.16 211.364 21.65 210.114 20.78 209.244C19.66 208.124 17.89 207.454 15.7 207.454H8V225.344ZM10.02 216.584V209.324H15.54C18.43 209.324 20.11 210.654 20.11 212.854V212.904C20.11 215.204 18.19 216.584 15.51 216.584H10.02V216.584ZM26.47 225.344H39.53V223.504H28.49V217.244H38.25V215.404H28.49V209.294H39.4V207.454H26.47V225.344ZM43.59 225.344H45.61V217.554H55.29V215.714H45.61V209.324H56.44V207.454H43.59V225.344ZM60.35 225.344H73.41V223.504H62.37V217.244H72.13V215.404H62.37V209.294H73.28V207.454H60.35V225.344ZM77.47 225.344H79.49V218.394H84.6L89.79 225.344H92.27L86.78 218.034C89.59 217.524 91.63 215.784 91.63 212.824V212.774C91.63 211.364 91.12 210.114 90.25 209.244C89.13 208.124 87.36 207.454 85.17 207.454H77.48V225.344H77.47ZM79.49 216.584V209.324H85.01C87.9 209.324 89.58 210.654 89.58 212.854V212.904C89.58 215.204 87.66 216.584 84.98 216.584H79.49V216.584ZM95.94 225.344H97.96V218.394H103.07L108.26 225.344H110.74L105.25 218.034C108.06 217.524 110.1 215.784 110.1 212.824V212.774C110.1 211.364 109.59 210.114 108.72 209.244C107.6 208.124 105.83 207.454 103.64 207.454H95.95V225.344H95.94ZM97.96 216.584V209.324H103.48C106.37 209.324 108.05 210.654 108.05 212.854V212.904C108.05 215.204 106.13 216.584 103.45 216.584H97.96V216.584ZM112.88 225.344H114.95L116.57 221.724L117.88 218.774H117.86L118.95 216.354L118.96 216.324L121.95 209.674L126.01 218.774H126L127.27 221.664L128.9 225.344H131.07L122.92 207.334H121.03L112.88 225.344ZM134.6 225.344H146.69V223.474H136.62V207.454H134.6V225.344V225.344Z" fill="#4798FF"/>
<path fill-rule="evenodd" clip-rule="evenodd" d="M150.07 225.344H154V219.624H157.09L160.92 225.344H165.52L161.15 218.954C163.42 218.114 164.98 216.294 164.98 213.414V213.364C164.98 211.674 164.44 210.274 163.45 209.274C162.27 208.094 160.51 207.464 158.24 207.464H150.06V225.344H150.07ZM154 216.144V211.004H157.91C159.83 211.004 161 211.874 161 213.564V213.614C161 215.124 159.9 216.144 157.99 216.144H154V216.144ZM167.01 225.344H171.02L172.06 222.794L174.06 217.864L174.23 217.444L174.26 217.374L176.44 212.064L178.82 217.864L180.81 222.774L181.86 225.354H185.97L178.31 207.344H174.68L167.01 225.344ZM190.59 225.344V211.084H185.15V207.454H199.97V211.084H194.53V225.344H190.59ZM203.16 225.344H207.09V207.454H203.16V225.344ZM211.57 225.344H215.45V213.974L224.11 225.344H227.46V207.454H223.58V218.464L215.2 207.454H211.57V225.344ZM240.36 225.654C243.63 225.654 246.16 224.374 248 222.814V215.044H240.23V218.444H244.19V220.994C243.19 221.714 241.92 222.064 240.49 222.064C237.32 222.064 235.07 219.664 235.07 216.394V216.344C235.07 213.304 237.34 210.774 240.21 210.774C242.28 210.774 243.51 211.434 244.89 212.584L247.37 209.594C245.5 208.014 243.56 207.144 240.34 207.144C234.92 207.144 230.96 211.304 230.96 216.394V216.444C230.96 221.744 234.79 225.654 240.36 225.654Z" fill="#4798FF"/>
<defs>
<linearGradient id="paint0_linear_3_5083" x1="151.252" y1="140.171" x2="91.671" y2="95.3065" gradientUnits="userSpaceOnUse">
<stop stop-color="#5091CD"/>
<stop offset="1" stop-color="#3A5E98"/>
</linearGradient>
</defs>
</svg>
