<svg width="161" height="161" viewBox="0 0 161 161" fill="none" xmlns="http://www.w3.org/2000/svg">
<path d="M151.682 88.9632C156.514 49.4929 128.433 13.5794 88.9632 8.74798C49.493 3.9166 13.5794 31.9969 8.748 71.4672C3.91661 110.937 31.997 146.851 71.4672 151.682C110.937 156.514 146.851 128.433 151.682 88.9632Z" fill="#4798FF"/>
<path fill-rule="evenodd" clip-rule="evenodd" d="M43.4922 37.014L82.8322 37.024C92.7422 37.064 102.572 40.884 107.312 46.054L151.512 90.254C150.512 97.434 148.452 104.274 145.492 110.604C138.522 125.544 126.582 137.694 111.802 144.924C111.572 145.034 111.332 145.154 111.092 145.264C110.782 145.414 110.472 145.554 110.162 145.694C109.942 145.794 109.722 145.894 109.502 145.994C109.192 146.134 108.872 146.274 108.552 146.404C108.332 146.494 108.112 146.594 107.892 146.684C107.552 146.824 107.202 146.964 106.862 147.104L106.342 147.314C105.972 147.464 105.592 147.604 105.222 147.744L104.692 147.934C104.312 148.074 103.932 148.204 103.552 148.334L103.062 148.504C102.652 148.644 102.242 148.774 101.832 148.904L101.452 149.024C100.992 149.164 100.542 149.304 100.082 149.434L99.7422 149.534C99.2822 149.664 98.8122 149.794 98.3422 149.914L98.0722 149.984C97.5822 150.104 97.1022 150.224 96.6122 150.344L96.3122 150.414C95.8222 150.524 95.3322 150.634 94.8322 150.734L94.5922 150.784C94.0822 150.884 93.5722 150.984 93.0522 151.074L92.8622 151.104C92.3222 151.204 91.7822 151.294 91.2422 151.374L91.0722 151.404C90.5322 151.484 89.9822 151.564 89.4322 151.634L89.3122 151.644C88.7422 151.714 88.1722 151.784 87.5922 151.844L87.4922 151.854C86.9222 151.914 86.3622 151.964 85.7922 152.004L85.6822 152.014C85.1022 152.054 84.5222 152.094 83.9322 152.124H83.8422C83.2622 152.154 82.6822 152.174 82.1022 152.194H81.9922C81.3922 152.204 80.7922 152.214 80.1822 152.214C79.5822 152.214 78.9822 152.204 78.3822 152.194H78.2622C77.7222 152.184 77.1922 152.154 76.6622 152.134L76.2622 152.114C75.8422 152.094 75.4222 152.064 75.0122 152.034C74.7422 152.014 74.4622 151.994 74.1922 151.974C73.9422 151.954 73.6922 151.934 73.4422 151.904C73.0222 151.864 72.5922 151.824 72.1722 151.774L72.0422 151.764L71.9122 151.754L71.7822 151.744L43.4922 123.414C43.4922 107.184 43.4922 88.514 43.4922 80.754H48.5422L43.4922 75.744V37.014Z" fill="url(#paint0_linear_3_5073)"/>
<path fill-rule="evenodd" clip-rule="evenodd" d="M58.6722 75.744V50.844H80.7622C91.9922 50.844 98.6622 55.904 98.6622 65.164V65.414C98.6622 76.234 88.4022 76.294 77.0622 78.504V92.234L98.9122 123.424H116.932L93.6022 90.714C105.572 87.264 114.092 78.744 114.092 64.544V64.294C114.092 56.764 111.502 50.344 106.932 45.654C101.382 40.224 92.8622 37.014 82.0022 37.014H43.4922V75.744H58.6722Z" fill="#C5D8FF"/>
<path fill-rule="evenodd" clip-rule="evenodd" d="M43.4922 123.414H58.6722V100.334C61.7022 96.434 66.8522 93.874 71.8422 92.794V79.694C67.1922 80.974 62.6022 82.924 58.6722 86.404V80.754H43.4922V123.414Z" fill="white"/>
<defs>
<linearGradient id="paint0_linear_3_5073" x1="103.464" y1="109.171" x2="43.8832" y2="64.3065" gradientUnits="userSpaceOnUse">
<stop stop-color="#5091CD"/>
<stop offset="1" stop-color="#3A5E98"/>
</linearGradient>
</defs>
</svg>
